<svg width="234" height="60" viewBox="0 0 234 60" fill="none" xmlns="http://www.w3.org/2000/svg">
<path d="M189.442 22.7614H202.149L211.238 41.9839L220.326 22.7614H233.034L214.857 58.6327H207.619L189.442 22.7614Z" fill="#02222D"/>
<path d="M148.27 58.6327V22.7614H159.852V27.0241C163.391 22.5201 167.573 21.7962 170.951 21.7962C174.088 21.7962 178.19 22.3592 181.246 25.4156C184.624 28.7936 184.865 33.0563 184.865 35.9517V58.6327H173.284V40.2145C173.284 37.882 173.203 34.9062 171.353 33.0563C170.469 32.1716 169.021 31.4477 166.93 31.4477C164.517 31.4477 162.989 32.4129 162.104 33.378C160.174 35.3083 159.852 37.882 159.852 40.2145V58.6327H148.27Z" fill="#02222D"/>
<path d="M125.238 22.7614H136.82V58.6327H125.238V22.7614ZM124.273 7.47988C124.273 3.69972 127.249 0.723846 131.029 0.723846C134.809 0.723846 137.785 3.69972 137.785 7.47988C137.785 11.26 134.809 14.2359 131.029 14.2359C127.249 14.2359 124.273 11.26 124.273 7.47988Z" fill="#02222D"/>
<path d="M113.531 0V58.6327H101.949V54.2895C100.179 56.8633 96.9622 59.8391 90.6083 59.8391C85.3 59.8391 81.4394 58.1501 78.3026 54.933C74.6029 51.2332 72.6726 46.0858 72.6726 40.5362C72.6726 34.5844 74.8442 29.6783 78.3026 26.3807C81.4394 23.4048 85.863 21.555 90.7691 21.555C94.7102 21.555 99.0533 22.8418 101.949 26.7828V0H113.531ZM93.5841 31.5282C91.2517 31.5282 89.241 32.1716 87.3911 33.941C85.7021 35.5496 84.5761 37.882 84.5761 40.7775C84.5761 43.4316 85.7021 45.7641 87.3911 47.3727C89.1605 49.0617 91.4126 49.866 93.4233 49.866C95.5949 49.866 98.1686 48.9812 100.018 47.2118C101.386 45.9249 102.673 43.7534 102.673 40.7775C102.673 37.7212 101.466 35.63 100.099 34.1823C98.249 32.252 96.0774 31.5282 93.5841 31.5282Z" fill="#0BC4FF"/>
<path d="M34.1019 38.2038L25.0938 58.6327H17.8552L0 22.7614H12.7078L21.9571 41.8231L31.0456 22.2789H37.1582L46.2467 41.8231L55.496 22.7614H68.2038L50.3485 58.6327H43.1099L34.1019 38.2038Z" fill="#0BC4FF"/>
</svg>
