<?xml version="1.0" encoding="UTF-8"?>
<svg id="Layer_1" data-name="Layer 1" xmlns="http://www.w3.org/2000/svg" viewBox="0 0 850 200">
  <defs>
    <style>
      .cls-1 {
        fill: #fdffff;
        stroke-width: 0px;
      }
    </style>
  </defs>
  <g>
    <g>
      <path class="cls-1" d="M25,141.2871273v-15.4243634l43.3118185-25.863094-43.3118185-25.863094v-15.4237031l67.3057128,41.2867972-67.3057128,41.2874574Z"/>
      <path class="cls-1" d="M178.154203,58.7128727v15.4237031l-43.3118185,25.863094,43.3118185,25.863094v15.4243634l-67.3057128-41.2874574,67.3057128-41.2867972Z"/>
    </g>
    <g>
      <path class="cls-1" d="M142.8642288,176.5771015h-15.4243634l-25.863094-43.3118185-25.863094,43.3118185h-15.4237031l41.2867972-67.3057128,41.2874574,67.3057128Z"/>
      <path class="cls-1" d="M60.2899742,23.4228985h15.4237031l25.863094,43.3118185,25.863094-43.3118185h15.4243634l-41.2874574,67.3057128L60.2899742,23.4228985Z"/>
    </g>
  </g>
  <g>
    <g>
      <path class="cls-1" d="M618.6581254,46.2990493h14.4135644v95.1036955h-14.4135644v-6.4717454c-6.3238826,7.3540339-14.1202829,8.3835743-18.5317256,8.3835743-19.1207327,0-30.0051428-15.884249-30.0051428-32.945901,0-20.149662,13.8257793-32.5047567,30.1517836-32.5047567,4.5593055,0,12.5023465,1.1767921,18.3850849,8.8253295v-40.3901962ZM584.8293248,110.6631763c0,10.7365474,6.7662489,19.7085177,17.2082928,19.7085177,9.1198331,0,17.5027963-6.6183861,17.5027963-19.5612659,0-13.5318868-8.3829633-20.0030212-17.5027963-20.0030212-10.4420439,0-17.2082928,8.8247185-17.2082928,19.8557694Z"/>
      <path class="cls-1" d="M706.7537819,127.283073c-2.6480877,4.7065573-6.4717454,8.8247185-10.4432659,11.3249434-5.0004498,3.2358727-11.6188359,4.7065573-18.2372221,4.7065573-8.2363225,0-15.0025714-2.0590806-20.8853098-7.941819-5.8839604-5.8833494-9.1198331-14.4141754-9.1198331-23.6800382,0-9.5603663,3.3837355-18.8262291,9.8542588-25.4452263,5.1483126-5.1477016,11.9145615-8.3835743,20.738669-8.3835743,9.8542588,0,16.1793635,4.265413,19.8563805,8.0896817,7.941819,8.2363225,8.6774668,19.7085177,8.6774668,26.1802631v1.7651881h-44.4187072c.2945035,4.4120538,2.2069434,9.4131146,5.2949533,12.5017355,3.3837355,3.3825135,7.5018967,3.9709095,11.0310509,3.9709095,3.9715205,0,6.9128897-.8822886,9.8542588-3.0886209,2.5002249-1.9118289,4.4126648-4.4126648,5.7360976-6.7656379l12.0612022,6.7656379ZM692.4868583,102.1323502c-.589007-3.3825135-2.2057214-6.3244936-4.4126648-8.3835743-1.9124399-1.7645771-5.0004498-3.5297652-9.7076181-3.5297652-5.0004498,0-8.2363225,2.0590806-10.1475404,3.9709095-2.0590806,1.9124399-3.677017,4.853809-4.4126648,7.94243h28.680488Z"/>
      <path class="cls-1" d="M728.5189362,79.4818524l15.883638,35.2994851,15.88486-35.2994851h16.1793635l-32.0642234,66.3335573-32.0630014-66.3335573h16.1793635Z"/>
      <path class="cls-1" d="M812.0565092,95.8078566c-1.4700736-2.3529731-4.264802-5.2949533-8.8241075-5.2949533-2.0590806,0-3.5303762.7356478-4.4126648,1.6179363-.7356478.7356478-1.3234328,1.9124399-1.3234328,3.2358727,0,1.6179363.7356478,2.6474767,2.0590806,3.5297652.8822886.588396,1.7645771.8828996,4.853809,2.5008359l7.3540339,3.676406c3.2358727,1.6179363,6.3238826,3.2358727,8.6774668,5.7367086,3.3825135,3.3825135,4.5593055,7.2067822,4.5593055,11.4721952,0,5.5888458-2.0590806,10.4426549-5.4415941,14.1196719-4.853809,5.2943423-10.8844102,6.9122787-17.3561556,6.9122787-3.9702985,0-8.9719703-.588396-13.3834131-3.9709095-3.5303762-2.6474767-6.4717454-6.9128897-7.943041-11.3249434l11.7666987-5.5894568c.7356478,2.0590806,2.0590806,4.7065573,3.3825135,5.8833494.8822886.8822886,2.9413692,2.3535841,6.3251046,2.3535841,2.2057214,0,4.5593055-.7356478,5.8827384-2.0596916,1.1767921-1.1761811,2.0590806-3.0886209,2.0590806-4.853198,0-1.7651881-.587785-3.2358727-1.9124399-4.7065573-1.7645771-1.7651881-3.8236577-2.7947284-6.1772419-3.8242687l-5.2949533-2.5002249c-2.7935064-1.3240438-6.1772419-2.9419802-8.529604-5.2949533-3.2358727-3.0886209-4.4126648-6.4717454-4.4126648-10.4426549,0-5.0004498,1.9112179-9.8542588,5.1470906-13.2373833,2.7947284-2.9413692,7.5018967-5.8833494,15.1492122-5.8833494,4.4126648,0,7.943041.8828996,11.4721952,3.2358727,2.0590806,1.3240438,4.853809,3.677017,7.0607524,7.6485375l-10.7377694,7.0595304Z"/>
    </g>
    <g>
      <path class="cls-1" d="M225.6902258,79.4818524l16.0315007,35.4467369,17.3549335-40.7410792,17.3561556,40.7410792,16.0315007-35.4467369h16.1781415l-32.2096422,66.3335573-17.3561556-39.5648981-17.3549335,39.5648981-32.2108642-66.3335573h16.1793635Z"/>
      <path class="cls-1" d="M325.8434185,50.1733343c5.2949533,0,9.2664738,3.9709095,9.2664738,9.2658628s-3.9715205,9.2664738-9.2664738,9.2664738-9.2664738-3.9715205-9.2664738-9.2664738,3.9715205-9.2658628,9.2664738-9.2658628Z"/>
      <rect class="cls-1" x="318.6360254" y="79.4818524" width="14.4147864" height="61.9208925"/>
      <path class="cls-1" d="M351.1377271,79.4818524h14.4135644v5.7360976c6.1772419-6.9122787,13.2367723-7.3540339,16.7671485-7.3540339,11.4721952,0,16.3260042,5.7367086,18.2384441,8.3835743,2.3523621,3.3831245,3.8236577,7.6485375,3.8236577,17.2089038v37.9463508h-14.4135644v-34.4165856c0-15.7376082-5.8839604-16.1787525-11.3255544-16.1787525-6.4717454,0-13.0901315.8822886-13.0901315,20.8853098v29.7100283h-14.4135644v-61.9208925Z"/>
      <path class="cls-1" d="M513.6511236,127.283073c-2.6480877,4.7065573-6.4717454,8.8247185-10.4432659,11.3249434-5.0004498,3.2358727-11.6188359,4.7065573-18.2372221,4.7065573-8.2363225,0-15.0025714-2.0590806-20.8853098-7.941819-5.8839604-5.8833494-9.1198331-14.4141754-9.1198331-23.6800382,0-9.5603663,3.3837355-18.8262291,9.8542588-25.4452263,5.1483126-5.1477016,11.9145615-8.3835743,20.738669-8.3835743,9.8542588,0,16.1793635,4.265413,19.8563805,8.0896817,7.941819,8.2363225,8.6774668,19.7085177,8.6774668,26.1802631v1.7651881h-44.4187072c.2945035,4.4120538,2.2069434,9.4131146,5.2949533,12.5017355,3.3837355,3.3825135,7.5018967,3.9709095,11.0310509,3.9709095,3.9715205,0,6.9128897-.8822886,9.8542588-3.0886209,2.5002249-1.9118289,4.4126648-4.4126648,5.7360976-6.7656379l12.0612022,6.7656379ZM499.3841999,102.1323502c-.589007-3.3825135-2.2057214-6.3244936-4.4126648-8.3835743-1.9124399-1.7645771-5.0004498-3.5297652-9.7076181-3.5297652-5.0004498,0-8.2363225,2.0590806-10.1475404,3.9709095-2.0590806,1.9124399-3.677017,4.853809-4.4126648,7.94243h28.680488Z"/>
      <path class="cls-1" d="M529.0887292,79.4818524h14.4135644v5.5894568c1.6179363-1.9124399,3.9715205-3.9715205,6.0306011-5.1477016,2.7947284-1.6179363,5.5894568-2.0596916,8.8253295-2.0596916,3.5291542,0,7.3540339.588396,11.3243324,2.9419802l-5.8827384,13.0901315c-3.2358727-2.0590806-5.8827384-2.2063324-7.3540339-2.2063324-3.0880099,0-6.1772419.4411443-8.9719703,3.3831245-3.9715205,4.264802-3.9715205,10.1481514-3.9715205,14.2663126v32.0636124h-14.4135644v-61.9208925Z"/>
      <polygon class="cls-1" points="437.4676402 79.4818555 437.4676402 56.8319418 423.0526545 56.8319418 423.0526545 79.4818555 412.0215388 79.4818555 412.0215388 92.71925 423.0526545 92.71925 423.0526545 141.4027387 437.4676402 141.4027387 437.4676402 92.71925 448.4987559 92.71925 448.4987559 79.4818555 437.4676402 79.4818555"/>
    </g>
  </g>
</svg>